<svg xmlns="http://www.w3.org/2000/svg" class="az theme-light" viewBox="0 0 1563 812" width="1563" height="812" role="img" aria-label="Enterprise product catalog search on Google Cloud">
<title>Enterprise product catalog search on Google Cloud</title>
<style>.az{--bg:#ffffff;--fg:#000000;--muted:#545b64;--line:#232F3E;--halo:#ffffff;--badge:#000000;--badgeFg:#ffffff}
.az.theme-dark{--bg:#161E2D;--fg:#ffffff;--muted:#aab4c3;--line:#d5dbdb;--halo:#161E2D;--badge:#ffffff;--badgeFg:#000000}
.az .bg{fill:var(--bg)}
.az text{font-family:Arial,Helvetica,sans-serif;fill:var(--fg)}
.az .title{font-size:22px;font-weight:700}
.az .subtitle{font-size:13px;fill:var(--muted)}
.az .glabel,.az .nlabel,.az .elabel{font-size:12px}
.az .nsub{font-size:10.5px;fill:var(--muted)}
.az .elabel{paint-order:stroke;stroke:var(--halo);stroke-width:4px;stroke-linejoin:round}
.az .eline{stroke:var(--line)}
.az .arw{fill:none;stroke:var(--line);stroke-width:1.6}
.az .badge circle{fill:var(--badge)}.az .badge circle.hit{fill:transparent}.az .badge{cursor:help}.az .badge:hover circle:not(.hit){stroke:#ff9900;stroke-width:3}
.az .badge text{fill:var(--badgeFg);font-weight:700;font-size:12px}
.az .only-dark{display:none}.az.theme-dark .only-dark{display:inline}.az.theme-dark .only-light{display:none}
.az.theme-dark .grect[data-fill-dark="none"]{fill:none}
.az .dim{opacity:.18}.az .hl .eline{stroke-width:3}
.az .edge,.az .node{transition:opacity .12s}</style>
<defs><marker id="arw" viewBox="0 0 10 10" refX="9" refY="5" markerWidth="10" markerHeight="10" markerUnits="userSpaceOnUse" orient="auto-start-reverse"><path class="arw" d="M1.5 1.5 L8.5 5 L1.5 8.5"/></marker><symbol id="grp-Project" viewBox="0 0 24 24"><g >
	<rect y="0" fill="none" width="24" height="24"/>
	<polygon fill-rule="evenodd" fill="#85A4E6" points="0.8,5.9 3.7,0.8 9.5,0.8 12.4,5.9 9.5,10.9 3.7,10.9 	"/>
	<polygon fill-rule="evenodd" fill="#5C85DE" points="11.4,7.7 8.5,2.6 9.5,0.7 12.4,5.9 	"/>
	<polygon id="grp-Project__Shape-Copy_00000019646383529055310330000009913415011964925323_" fill-rule="evenodd" fill="#3367D6" points="
		2.7,9.3 8.5,9.3 10.5,5.9 11.4,7.7 9.5,10.9 3.7,11 	"/>
	<polygon fill-rule="evenodd" fill="#85A4E6" points="11.2,11.9 14.2,6.8 20,6.8 22.9,11.9 20,16.9 14.2,16.9 	"/>
	<polygon id="grp-Project__Shape-Copy_00000133527958483064390410000012377415375428947900_" fill-rule="evenodd" fill="#5C85DE" points="
		21.9,13.7 19,8.6 20,6.7 22.9,11.9 	"/>
	<polygon id="grp-Project__Shape-Copy_00000176019471624316745960000001248137580190207128_" fill-rule="evenodd" fill="#3367D6" points="
		13.2,15.3 19,15.3 21,11.9 21.9,13.7 20,16.9 14.2,17 	"/>
	<polygon fill-rule="evenodd" fill="#85A4E6" points="0.8,17.9 3.7,12.8 9.5,12.8 12.4,17.9 9.5,22.9 3.7,22.9 	"/>
	<polygon id="grp-Project__Shape-Copy_00000096041779745201399360000017167964797373102485_" fill-rule="evenodd" fill="#5C85DE" points="
		11.4,19.7 8.5,14.6 9.5,12.7 12.4,17.9 	"/>
	<polygon id="grp-Project__Shape-Copy_00000049204188488742950820000010444321201512143025_" fill-rule="evenodd" fill="#3367D6" points="
		2.7,21.3 8.5,21.3 10.5,17.9 11.4,19.7 9.5,22.9 3.7,23 	"/>
</g></symbol><symbol id="svc-vertexai" viewBox="0 0 512 512"><g id="svc-vertexai__bounding_box">
    <rect width="512" height="512" fill="none"/>
  </g>
  <g id="svc-vertexai__art">
    <path d="M128,244.99c-8.84,0-16-7.16-16-16v-95.97c0-8.84,7.16-16,16-16s16,7.16,16,16v95.97c0,8.84-7.16,16-16,16Z" fill="#ea4335"/>
    <path d="M256,458c-2.98,0-5.97-.83-8.59-2.5l-186-122c-7.46-4.74-9.65-14.63-4.91-22.09,4.75-7.46,14.64-9.65,22.09-4.91l177.41,116.53,177.41-116.53c7.45-4.74,17.34-2.55,22.09,4.91,4.74,7.46,2.55,17.34-4.91,22.09l-186,122c-2.62,1.67-5.61,2.5-8.59,2.5Z" fill="#fbbc04"/>
    <path d="M256,388.03c-8.84,0-16-7.16-16-16v-73.06c0-8.84,7.16-16,16-16s16,7.16,16,16v73.06c0,8.84-7.16,16-16,16Z" fill="#34a853"/>
    <circle cx="128" cy="70" r="16" fill="#ea4335"/>
    <circle cx="128" cy="292" r="16" fill="#ea4335"/>
    <path d="M384.23,308.01c-8.82,0-15.98-7.14-16-15.97l-.23-94.01c-.02-8.84,7.13-16.02,15.97-16.03h.04c8.82,0,15.98,7.14,16,15.97l.23,94.01c.02,8.84-7.13,16.02-15.97,16.03h-.04Z" fill="#4285f4"/>
    <circle cx="384" cy="70" r="16" fill="#4285f4"/>
    <circle cx="384" cy="134" r="16" fill="#4285f4"/>
    <path d="M320,220.36c-8.84,0-16-7.16-16-16v-103.02c0-8.84,7.16-16,16-16s16,7.16,16,16v103.02c0,8.84-7.16,16-16,16Z" fill="#fbbc04"/>
    <circle cx="256" cy="171" r="16" fill="#34a853"/>
    <circle cx="256" cy="235" r="16" fill="#34a853"/>
    <circle cx="320" cy="265" r="16" fill="#fbbc04"/>
    <circle cx="320" cy="329" r="16" fill="#fbbc04"/>
    <path d="M192,217.36c-8.84,0-16-7.16-16-16v-100.02c0-8.84,7.16-16,16-16s16,7.16,16,16v100.02c0,8.84-7.16,16-16,16Z" fill="#fbbc04"/>
    <circle cx="192" cy="265" r="16" fill="#fbbc04"/>
    <circle cx="192" cy="329" r="16" fill="#fbbc04"/>
  </g></symbol><symbol id="gen-users" viewBox="0 0 24 24"><circle cx="9" cy="8" r="3.4" fill="#4285F4"/><path d="M2.5 19.5c0-3.6 2.9-6 6.5-6s6.5 2.4 6.5 6z" fill="#4285F4"/><circle cx="17" cy="9" r="2.8" fill="#8AB4F8"/><path d="M16 13.8c3 .1 5.5 2 5.5 5.7H17c0-2-.4-3.8-1-5.7z" fill="#8AB4F8"/></symbol><symbol id="svc-cloud_armor" viewBox="0 0 24 24"><defs><style>.svc-cloud_armor__cls-1{fill:#aecbfa;}.svc-cloud_armor__cls-2{fill:#669df6;}</style></defs><g data-name="Product Icons"><polygon class="svc-cloud_armor__cls-1" points="9.76 20.6 8.72 19.55 14.17 14.07 15.21 15.12 9.76 20.6"/><polygon class="svc-cloud_armor__cls-1" points="7.03 18.32 5.99 17.27 13.34 9.88 14.38 10.93 7.03 18.32"/><polygon class="svc-cloud_armor__cls-1" points="5.34 14.98 4.3 13.93 9.18 9.03 10.22 10.08 5.34 14.98"/><path class="svc-cloud_armor__cls-2" d="M12,3.61l6.78,3v4.55A9.71,9.71,0,0,1,12,20.48a9.7,9.7,0,0,1-6.78-9.31V6.63l6.78-3M12,2,3.75,5.68v5.49A11.17,11.17,0,0,0,11.85,22L12,22l.15,0a11.17,11.17,0,0,0,8.1-10.78V5.68L12,2Z"/><circle class="svc-cloud_armor__cls-2" cx="14.69" cy="14.62" r="1.42"/><circle class="svc-cloud_armor__cls-2" cx="13.85" cy="10.45" r="1.42"/><circle class="svc-cloud_armor__cls-2" cx="9.69" cy="9.6" r="1.42"/></g></symbol><symbol id="svc-cloud_load_balancing" viewBox="0 0 24 24"><defs><style>.svc-cloud_load_balancing__cls-1{fill:none;}.svc-cloud_load_balancing__cls-2{fill:#669df6;}.svc-cloud_load_balancing__cls-3{fill:#4285f4;}.svc-cloud_load_balancing__cls-4{fill:#aecbfa;}</style></defs><g data-name="Product Icons"><g data-name="colored-32/load-balancing"><rect class="svc-cloud_load_balancing__cls-1" width="24" height="24"/><g ><rect class="svc-cloud_load_balancing__cls-2" x="18" y="12" width="2" height="4"/><rect class="svc-cloud_load_balancing__cls-2" x="11" y="12" width="2" height="4"/><rect class="svc-cloud_load_balancing__cls-2" x="4" y="12" width="2" height="4"/><polygon id="svc-cloud_load_balancing__Fill-2" class="svc-cloud_load_balancing__cls-3" points="13 11 11 11 11 7 13 7 13 11"/><rect class="svc-cloud_load_balancing__cls-2" x="4" y="11" width="16" height="2"/><rect class="svc-cloud_load_balancing__cls-4" x="6" y="2" width="12" height="5"/><rect class="svc-cloud_load_balancing__cls-2" x="12" y="2" width="6" height="5"/><rect class="svc-cloud_load_balancing__cls-4" x="16" y="16" width="6" height="6"/><rect class="svc-cloud_load_balancing__cls-4" x="2" y="16" width="6" height="6"/><rect class="svc-cloud_load_balancing__cls-2" x="5" y="16" width="3" height="6"/><rect class="svc-cloud_load_balancing__cls-4" x="9" y="16" width="6" height="6"/><rect class="svc-cloud_load_balancing__cls-2" x="12" y="16" width="3" height="6"/><rect class="svc-cloud_load_balancing__cls-2" x="19" y="16" width="3" height="6"/></g></g></g></symbol><symbol id="svc-cloud_run" viewBox="0 0 512 512"><defs>
    <style>
      .svc-cloud_run__st0 {
        fill: none;
      }

      .svc-cloud_run__st1 {
        fill: #4285f4;
      }

      .svc-cloud_run__st2 {
        fill: #34a853;
      }

      .svc-cloud_run__st3 {
        fill: #fbbc04;
      }

      .svc-cloud_run__st4 {
        fill: #ea4335;
      }
    </style>
  </defs>
  <g id="svc-cloud_run__bounding_box">
    <rect class="svc-cloud_run__st0" width="512" height="512"/>
  </g>
  <g id="svc-cloud_run__art">
    <path class="svc-cloud_run__st3" d="M144.4,272c-6.4,0-12.4-3.8-14.9-10.1L55.4,75.9c-3.3-8.2.7-17.5,8.9-20.8,8.2-3.3,17.5.7,20.8,8.9l74.2,186c3.3,8.2-.7,17.5-8.9,20.8-1.9.8-3.9,1.1-5.9,1.1h-.1Z"/>
    <g id="svc-cloud_run__b">
      <path class="svc-cloud_run__st4" d="M256,272c-6.4,0-12.4-3.8-14.9-10.1l-74.1-186c-2.6-6.6-.6-14.1,5-18.5s13.4-4.5,19.2-.4l260.1,186c7.2,5.1,8.9,15.1,3.7,22.3s-15.1,8.9-22.3,3.7L216.9,114.7l54,135.3c3.3,8.2-.7,17.5-8.9,20.8-1.9.8-4,1.1-5.9,1.1h-.1Z"/>
    </g>
    <path class="svc-cloud_run__st2" d="M127.2,256l-72,180c-3.3,8.2.7,17.5,8.9,20.8,3.1,1.2,4,1.1,5.9,1.1,6.3,0,12.4-3.8,14.9-10.1l74.4-186c.8-2,1.1-4,1.1-5.9h-33.2Z"/>
    <path class="svc-cloud_run__st1" d="M414.5,256l-197.7,141.2,54.1-135.3c.8-2,1.1-4,1.1-5.9h-33.2l-72,180c-2.6,6.6-.6,14.1,5,18.5,2.9,2.3,6.4,3.4,9.9,3.4s6.5-1,9.3-3l260.4-186c4.4-3.1,6.7-8,6.7-13h-43.6Z"/>
  </g></symbol><symbol id="svc-pubsub" viewBox="0 0 24 24"><defs><style>.svc-pubsub__cls-1{filter:url(#svc-pubsub__luminosity-noclip);}.svc-pubsub__cls-2{fill:#669df6;}.svc-pubsub__cls-3{mask:url(#svc-pubsub__mask);}.svc-pubsub__cls-4{fill:#4285f4;}.svc-pubsub__cls-5{fill:#aecbfa;}</style><filter id="svc-pubsub__luminosity-noclip" x="4.64" y="4.19" width="14.73" height="12.76" filterUnits="userSpaceOnUse" color-interpolation-filters="sRGB"><feFlood flood-color="#fff" result="bg"/><feBlend in="SourceGraphic" in2="bg"/></filter><mask id="svc-pubsub__mask" x="4.64" y="4.19" width="14.73" height="12.76" maskUnits="userSpaceOnUse"><circle class="svc-pubsub__cls-1" cx="12" cy="12.23" r="3.58"/></mask></defs><g data-name="Product Icons"><circle class="svc-pubsub__cls-2" cx="18.97" cy="8.21" r="1.72"/><circle class="svc-pubsub__cls-2" cx="5.03" cy="8.21" r="1.72"/><circle class="svc-pubsub__cls-2" cx="12" cy="20.28" r="1.72"/><g class="svc-pubsub__cls-3"><rect class="svc-pubsub__cls-4" x="14.69" y="10.22" width="1.59" height="8.04" transform="matrix(0.5, -0.87, 0.87, 0.5, -4.59, 20.53)"/><rect class="svc-pubsub__cls-4" x="4.49" y="13.45" width="8.04" height="1.59" transform="translate(-5.98 6.17) rotate(-30)"/><rect class="svc-pubsub__cls-4" x="11.2" y="4.19" width="1.59" height="8.04"/></g><circle class="svc-pubsub__cls-5" cx="12" cy="12.23" r="2.78"/><circle class="svc-pubsub__cls-5" cx="5.03" cy="16.25" r="2.19"/><circle class="svc-pubsub__cls-5" cx="18.97" cy="16.25" r="2.19"/><circle class="svc-pubsub__cls-5" cx="12" cy="4.19" r="2.19"/></g></symbol><symbol id="svc-dataflow" viewBox="0 0 24 24"><defs><style>.svc-dataflow__cls-1{fill:#669df6;}.svc-dataflow__cls-1,.svc-dataflow__cls-2,.svc-dataflow__cls-3{fill-rule:evenodd;}.svc-dataflow__cls-2,.svc-dataflow__cls-4{fill:#aecbfa;}.svc-dataflow__cls-3{fill:#4285f4;}</style></defs><g data-name="Product Icons"><g ><polygon class="svc-dataflow__cls-1" points="13.79 5.04 13.52 4.1 12.11 4.03 10.39 4.99 11.91 6.49 11.89 8.22 12.91 8.23 12.93 6.5 17.17 9.06 17.16 10.13 18.93 10.16 18.93 8.11 13.79 5.04"/><polygon class="svc-dataflow__cls-2" points="12.11 4.03 12.11 4.03 12.1 4.03 10.68 4.38 10.39 4.99 5.13 7.92 5.1 9.97 6.88 10 6.9 8.93 11.21 6.48 11.19 8.21 12.05 8.22 12.11 4.03"/><polygon class="svc-dataflow__cls-1" points="12.11 4.03 12.11 4.03 12.1 4.03 8.69 2 6.95 2.95 10.39 4.99 12.11 4.03 12.11 4.03"/><polygon class="svc-dataflow__cls-1" points="17.09 15.06 12.79 17.51 12.81 15.79 11.09 15.77 11.07 17.49 11.89 19.97 13.31 19.85 13.6 19 18.87 16.07 18.9 13.98 17.11 13.96 17.09 15.06"/><polygon class="svc-dataflow__cls-1" points="11.89 19.97 11.89 19.97 11.89 19.97 8.43 21.91 8.38 21.91 6.72 20.92 10.21 18.96 11.89 19.97 11.89 19.97"/><polygon class="svc-dataflow__cls-3" points="13.79 5.04 17.28 3.08 15.62 2.09 15.57 2.09 12.11 4.03 13.79 5.04"/><polygon class="svc-dataflow__cls-3" points="13.61 19.01 17.05 21.05 15.36 22 15.31 22 11.89 19.97 11.89 19.97 11.89 19.97 11.89 19.97 13.61 19.01"/><polygon class="svc-dataflow__cls-2" points="11.89 19.96 10.21 18.96 5.07 15.89 5.07 13.89 6.83 13.89 6.82 14.93 11.07 17.49 11.09 15.77 11.95 15.78 11.89 19.96"/><circle id="svc-dataflow__Oval" class="svc-dataflow__cls-4" cx="18.12" cy="12.04" r="1.14"/><circle class="svc-dataflow__cls-4" cx="5.88" cy="11.88" r="1.14"/><circle class="svc-dataflow__cls-4" cx="12.06" cy="9.99" r="1.14"/><circle class="svc-dataflow__cls-4" cx="11.97" cy="14" r="1.14"/></g></g></symbol><symbol id="svc-bigquery" viewBox="0 0 512 512"><defs>
    <style>
      .svc-bigquery__st0 {
        fill: none;
      }

      .svc-bigquery__st1 {
        fill: #4285f4;
      }

      .svc-bigquery__st2 {
        fill: #34a853;
      }

      .svc-bigquery__st3 {
        fill: #fbbc04;
      }

      .svc-bigquery__st4 {
        fill: #ea4335;
      }
    </style>
  </defs>
  <g id="svc-bigquery__bounding_box">
    <rect class="svc-bigquery__st0" width="512" height="512"/>
  </g>
  <g id="svc-bigquery__art">
    <path class="svc-bigquery__st2" d="M311.9,418.9c-8.8,0-16-7.2-16-16v-145.8c0-8.8,7.2-16,16-16s16,7.2,16,16v145.8c0,8.8-7.2,16-16,16h0Z"/>
    <path class="svc-bigquery__st2" d="M147.6,418.9c-8.8,0-16-7.2-16-16v-200.5c0-8.8,7.2-16,16-16s16,7.2,16,16v200.5c0,8.8-7.2,16-16,16Z"/>
    <path class="svc-bigquery__st2" d="M229.8,437.4c-8.8,0-16-7.2-16-16V147.6c0-8.8,7.2-16,16-16s16,7.2,16,16v273.7c0,8.8-7.2,16-16,16h0Z"/>
    <path class="svc-bigquery__st3" d="M229.8,437.4c-114.5,0-207.6-93.1-207.6-207.6h32c0,96.8,78.8,175.6,175.6,175.6s175.6-78.8,175.6-175.6h32c0,114.5-93.1,207.6-207.6,207.6h0Z"/>
    <path class="svc-bigquery__st4" d="M437.4,229.8h-32c0-96.8-78.8-175.6-175.6-175.6S54.1,132.9,54.1,229.8H22.1c0-114.5,93.2-207.7,207.7-207.7s207.6,93.1,207.6,207.6h0Z"/>
    <path class="svc-bigquery__st1" d="M487.4,464.8l-100-100c32.3-37.6,49.9-85,49.9-135.1s-21.6-107.6-60.8-146.8l-22.6,22.6c33.2,33.2,51.4,77.3,51.4,124.2s-18.3,90.9-51.5,124.1h0c-5,5-7.5,7-11.8,10.8l122.8,122.8c3.1,3.1,7.2,4.7,11.3,4.7h0c4.1,0,8.2-1.6,11.3-4.7,6.2-6.2,6.2-16.4,0-22.6h0Z"/>
  </g></symbol><symbol id="gen-server-farm" viewBox="0 0 24 24"><rect x="3" y="3" width="18" height="5.2" rx="1.2" fill="#5F6368"/><rect x="3" y="9.4" width="18" height="5.2" rx="1.2" fill="#80868B"/><rect x="3" y="15.8" width="18" height="5.2" rx="1.2" fill="#5F6368"/><g fill="#34A853"><circle cx="6" cy="5.6" r=".9"/><circle cx="6" cy="12" r=".9"/><circle cx="6" cy="18.4" r=".9"/></g><g stroke="#DADCE0" stroke-width="1"><path d="M10 5.6h8M10 12h8M10 18.4h8"/></g></symbol><symbol id="svc-cloud_storage" viewBox="0 0 512 512"><defs>
    <style>
      .svc-cloud_storage__st0 {
        fill: none;
      }

      .svc-cloud_storage__st1 {
        fill: #4285f4;
      }

      .svc-cloud_storage__st2 {
        fill: #34a853;
      }

      .svc-cloud_storage__st3 {
        fill: #fbbc04;
      }

      .svc-cloud_storage__st4 {
        fill: #ea4335;
      }
    </style>
  </defs>
  <g id="svc-cloud_storage__bounding_box">
    <rect class="svc-cloud_storage__st0" width="512" height="512"/>
  </g>
  <g id="svc-cloud_storage__art">
    <path class="svc-cloud_storage__st2" d="M442,277.9H70c-8.8,0-16,7.2-16,16v148.1c0,8.8,7.2,16,16,16h107.2c1.5.5,3.1.7,4.8.7s3.3-.3,4.8-.7h255.2c8.8,0,16-7.2,16-16v-148.1c0-8.8-7.2-16-16-16ZM86,309.9h80v116.1h-80v-116.1ZM426,425.9h-228v-116.1h228v116.1Z"/>
    <path class="svc-cloud_storage__st3" d="M442,54H70c-8.8,0-16,7.2-16,16v148.8c0,8.8,7.2,16,16,16h372c8.8,0,16-7.2,16-16V70c0-8.8-7.2-16-16-16ZM86,86h80v116.8h-80v-116.8ZM426,202.8h-228v-116.8h228v116.8Z"/>
    <path class="svc-cloud_storage__st4" d="M442,234.8h-16V86H54v-16c0-8.8,7.2-16,16-16h372c8.8,0,16,7.2,16,16v148.8c0,8.8-7.2,16-16,16Z"/>
    <path class="svc-cloud_storage__st1" d="M442,457.9h-16v-148.1H54v-16c0-8.8,7.2-16,16-16h372c8.8,0,16,7.2,16,16v148.1c0,8.8-7.2,16-16,16Z"/>
    <circle class="svc-cloud_storage__st4" cx="349" cy="144.4" r="37"/>
    <circle class="svc-cloud_storage__st1" cx="349" cy="367.9" r="37"/>
  </g></symbol><symbol id="svc-looker" viewBox="0 0 512 512"><defs>
    <style>
      .svc-looker__st0 {
        fill: none;
      }

      .svc-looker__st1 {
        fill: #4285f4;
      }

      .svc-looker__st2 {
        fill: #34a853;
      }

      .svc-looker__st3 {
        fill: #fbbc04;
      }

      .svc-looker__st4 {
        fill: #ea4335;
      }
    </style>
  </defs>
  <g id="svc-looker__bounding_box">
    <rect class="svc-looker__st0" width="512" height="512"/>
  </g>
  <g id="svc-looker__art">
    <path class="svc-looker__st1" d="M313.5,297c44.4,0,80.5,36.1,80.5,80.5s-36.1,80.5-80.5,80.5-80.5-36.1-80.5-80.5,36.1-80.5,80.5-80.5M313.5,265c-62.1,0-112.5,50.4-112.5,112.5s50.4,112.5,112.5,112.5,112.5-50.4,112.5-112.5-50.4-112.5-112.5-112.5h0Z"/>
    <path class="svc-looker__st4" d="M338.1,40.9c-25.1-25.1-66.1-25.1-91.2,0-21.2,21.2-24.5,53.5-10.1,78.2l-44.3,42.3c-6.4,6.1-6.6,16.2-.5,22.6,3.1,3.3,7.4,5,11.6,5s7.9-1.5,11-4.4l44.7-42.7c10.2,6.1,21.7,9.1,33.2,9.1,16.5,0,33-6.3,45.6-18.9,25.1-25.2,25.1-66.1,0-91.2h0ZM315.5,109.5c-12.7,12.7-33.3,12.7-46,0s-12.7-33.3,0-46c6.3-6.3,14.7-9.5,23-9.5s16.6,3.2,23,9.5c12.7,12.7,12.7,33.3,0,46h0Z"/>
    <path class="svc-looker__st2" d="M313.5,265c-21.5,0-42.1,6-60.1,17.4h0s-38.6-37.9-38.6-37.9l-22.4,22.9,36.6,35.8,22.9,22.4h0c1.5-1.8,3-3.5,4.7-5.1,3.1-3.1,6.4-5.9,9.8-8.4h0c13.8-9.9,30-15.2,47.1-15.2,44.4,0,80.5,36.1,80.5,80.5h32c0-62-50.5-112.5-112.5-112.5h0Z"/>
    <path class="svc-looker__st3" d="M161.5,290.5c-19.3,0-38.7-7.4-53.4-22.1-29.4-29.4-29.4-77.3,0-106.8,29.4-29.4,77.3-29.4,106.8,0,29.4,29.4,29.4,77.3,0,106.8h0c-14.7,14.7-34.1,22.1-53.4,22.1h0ZM161.5,171.5c-11.1,0-22.3,4.2-30.8,12.7-17,17-17,44.6,0,61.5,17,17,44.6,17,61.5,0,17-17,17-44.6,0-61.5-8.5-8.5-19.6-12.7-30.8-12.7h0Z"/>
  </g></symbol><symbol id="svc-cloud_monitoring" viewBox="0 0 24 24"><defs><style>.svc-cloud_monitoring__cls-1{fill:#669df6;}.svc-cloud_monitoring__cls-2{fill:#4285f4;}</style></defs><g data-name="Product Icons"><rect class="svc-cloud_monitoring__cls-1" x="10.83" y="15.84" width="2.33" height="2.64"/><path class="svc-cloud_monitoring__cls-2" d="M18.48,13.87a.56.56,0,0,1-.4-.17L14,9.47l-2.74,2.89a.57.57,0,0,1-.76.05L8.42,10.73l-2.2,2.92a.56.56,0,0,1-.45.22H2v1.71a.75.75,0,0,0,.74.75H21.26a.75.75,0,0,0,.74-.75V13.87Z"/><path class="svc-cloud_monitoring__cls-1" d="M5.5,12.76,7.88,9.6a.55.55,0,0,1,.37-.22.63.63,0,0,1,.42.12l2.12,1.72,2.8-2.94a.54.54,0,0,1,.4-.17h0a.54.54,0,0,1,.4.17l4.33,4.48H22V6a.74.74,0,0,0-.74-.74H2.74A.74.74,0,0,0,2,6v6.81Z"/><rect class="svc-cloud_monitoring__cls-2" x="8.67" y="18.18" width="6.67" height="0.61" rx="0.3"/></g></symbol></defs>
<rect class="bg" width="1563" height="812"/>
<text class="title" x="40" y="46">Enterprise product catalog search on Google Cloud</text>
<text class="subtitle" x="40" y="70">Hybrid keyword + vector search with Vertex AI, a Cloud Run search API, and a Pub/Sub + Dataflow pipeline that keeps the index fresh</text>
<g class="group" data-id="cloud" data-label="Google Cloud">
<rect x="221" y="116" width="1302" height="656" fill="none" stroke="#3C4043" stroke-width="1.25" data-fill-light="none" data-fill-dark="none" class="grect"/>
<text class="glabel" x="231" y="136">Google Cloud</text>
</g>
<g class="group" data-id="project" data-label="Project: catalog-prod">
<rect x="411" y="164" width="1088" height="584" fill="none" stroke="#4285F4" stroke-width="1.25" data-fill-light="none" data-fill-dark="none" class="grect"/>
<use href="#grp-Project" x="411" y="164" width="32" height="32"/>
<text class="glabel" x="451" y="185">Project: catalog-prod</text>
</g>
<g class="group" data-id="region" data-label="Region us-central1">
<rect x="435" y="212" width="688" height="512" fill="none" stroke="#4285F4" stroke-width="1.25" stroke-dasharray="2 3" data-fill-light="none" data-fill-dark="none" class="grect"/>
<text class="glabel" x="445" y="232">Region us-central1</text>
</g>
<g class="group" data-id="retr" data-label="Retrieval and ranking">
<rect x="635" y="296" width="242" height="344" fill="none" stroke="#4285F4" stroke-width="1.25" data-fill-light="none" data-fill-dark="none" class="grect"/>
<use href="#svc-vertexai" x="635" y="296" width="32" height="32"/>
<text class="glabel" x="675" y="317">Retrieval and ranking</text>
</g>
<g class="edge" data-from="shoppers" data-to="armor" data-step="1" data-label="search" data-tip="A shopper query reaches the global load balancer through Cloud Armor">
<path d="M122.5 372 L261 372" fill="none" class="eline" stroke-width="2" marker-end="url(#arw)"/>
<text class="elabel" x="191.75" y="364" text-anchor="middle">search</text>
<g class="badge"><title>1. A shopper query reaches the global load balancer through Cloud Armor</title><circle cx="146.5" cy="372" r="11"/><circle class="hit" cx="146.5" cy="372" r="16"/><text x="146.5" y="376.5" text-anchor="middle">1</text></g>
</g>
<g class="edge" data-from="armor" data-to="lb" data-step="2" data-label="" data-tip="Cloud Armor → Load Balancer">
<path d="M293 452 L293 508" fill="none" class="eline" stroke-width="2" marker-end="url(#arw)"/>
<g class="badge"><title>2. Cloud Armor → Load Balancer</title><circle cx="293" cy="476" r="11"/><circle class="hit" cx="293" cy="476" r="16"/><text x="293" y="480.5" text-anchor="middle">2</text></g>
</g>
<g class="edge" data-from="emb" data-to="vs" data-step="5" data-label="hybrid query" data-tip="The query embedding and the keywords are sent to the search index together and results are blended">
<path d="M756 504 L756 456" fill="none" class="eline" stroke-width="2" marker-end="url(#arw)"/>
<text class="elabel" x="774" y="484" text-anchor="start">hybrid query</text>
<g class="badge"><title>5. The query embedding and the keywords are sent to the search index together and results are blended</title><circle cx="756" cy="480" r="11"/><circle class="hit" cx="756" cy="480" r="16"/><text x="756" y="484.5" text-anchor="middle">5</text></g>
</g>
<g class="edge" data-from="topic" data-to="df" data-step="7" data-label="" data-tip="Pub/Sub → Dataflow">
<path d="M1028 372 L1028 424" fill="none" class="eline" stroke-width="2" marker-end="url(#arw)"/>
<g class="badge"><title>7. Pub/Sub → Dataflow</title><circle cx="1028" cy="396" r="11"/><circle class="hit" cx="1028" cy="396" r="16"/><text x="1028" y="400.5" text-anchor="middle">7</text></g>
</g>
<g class="edge" data-from="df" data-to="bq" data-step="" data-label="archive">
<path d="M1028 536 L1028 588" fill="none" class="eline" stroke-width="2" stroke-dasharray="6 4" marker-end="url(#arw)"/>
<text class="elabel" x="1046" y="566" text-anchor="start">archive</text>
</g>
<g class="edge" data-from="lb" data-to="api" data-step="3" data-label="" data-tip="Load Balancer → Search API">
<path d="M325 540 L400 540 L400 456 L475 456" fill="none" class="eline" stroke-width="2" marker-end="url(#arw)"/>
<g class="badge"><title>3. Load Balancer → Search API</title><circle cx="349" cy="540" r="11"/><circle class="hit" cx="349" cy="540" r="16"/><text x="349" y="544.5" text-anchor="middle">3</text></g>
</g>
<g class="edge" data-from="api" data-to="emb" data-step="4" data-label="embed query" data-tip="Search API → Embeddings (embed query)">
<path d="M539 456 L607.5 456 L607.5 536 L724 536" fill="none" class="eline" stroke-width="2" marker-end="url(#arw)"/>
<text class="elabel" x="648.275" y="528" text-anchor="middle">embed query</text>
<g class="badge"><title>4. Search API → Embeddings (embed query)</title><circle cx="563" cy="456" r="11"/><circle class="hit" cx="563" cy="456" r="16"/><text x="563" y="460.5" text-anchor="middle">4</text></g>
</g>
<g class="edge" data-from="pim" data-to="topic" data-step="6" data-label="changes" data-tip="PIM / ERP → Pub/Sub (changes)">
<path d="M1243.5 340 L1243.5 292 L1060 292" fill="none" class="eline" stroke-width="2" marker-end="url(#arw)"/>
<text class="elabel" x="1151.75" y="284" text-anchor="middle">changes</text>
<g class="badge"><title>6. PIM / ERP → Pub/Sub (changes)</title><circle cx="1243.5" cy="316" r="11"/><circle class="hit" cx="1243.5" cy="316" r="16"/><text x="1243.5" y="320.5" text-anchor="middle">6</text></g>
</g>
<g class="edge" data-from="df" data-to="vs" data-step="8" data-label="upsert" data-tip="Dataflow → Vector and keyword search (upsert)">
<path d="M996 456 L892 456 L892 376 L788 376" fill="none" class="eline" stroke-width="2" marker-end="url(#arw)"/>
<text class="elabel" x="928.4" y="448" text-anchor="middle">upsert</text>
<g class="badge"><title>8. Dataflow → Vector and keyword search (upsert)</title><circle cx="972" cy="456" r="11"/><circle class="hit" cx="972" cy="456" r="16"/><text x="972" y="460.5" text-anchor="middle">8</text></g>
</g>
<g class="edge" data-from="merch" data-to="looker" data-step="" data-label="tune">
<path d="M58.5 540 L36.5 540 L36.5 194 L1365.5 194 L1365.5 372 L1387.5 372" fill="none" class="eline" stroke-width="2" stroke-dasharray="6 4" marker-end="url(#arw)"/>
<text class="elabel" x="701" y="186" text-anchor="middle">tune</text>
</g>
<g class="edge" data-from="looker" data-to="bq" data-step="" data-label="query">
<path d="M1419.5 340 L1419.5 318 L1479.5 318 L1479.5 722 L1028 722 L1028 700" fill="none" class="eline" stroke-width="2" stroke-dasharray="6 4" marker-end="url(#arw)"/>
<text class="elabel" x="1253.75" y="714" text-anchor="middle">query</text>
</g>
<g class="node" data-id="shoppers" data-label="Shoppers" data-service="Users" data-category="General"><title>Shoppers (Users)</title>
<use href="#gen-users" x="58.5" y="340" width="64" height="64"/>
<text class="nlabel" x="90.5" y="421" text-anchor="middle">Shoppers</text>
<text class="nsub" x="90.5" y="435" text-anchor="middle">web and app</text>
</g>
<g class="node" data-id="merch" data-label="Merchandisers" data-service="Users" data-category="General"><title>Merchandisers (Users)</title>
<use href="#gen-users" x="58.5" y="508" width="64" height="64"/>
<text class="nlabel" x="90.5" y="589" text-anchor="middle">Merchandisers</text>
<text class="nsub" x="90.5" y="603" text-anchor="middle">synonyms, boosts</text>
</g>
<g class="node" data-id="armor" data-label="Cloud Armor" data-service="Cloud Armor" data-category="networking"><title>Cloud Armor (Cloud Armor)</title>
<use href="#svc-cloud_armor" x="261" y="340" width="64" height="64"/>
<text class="nlabel" x="293" y="421" text-anchor="middle">Cloud Armor</text>
</g>
<g class="node" data-id="lb" data-label="Load Balancer" data-service="Cloud Load Balancing" data-category="networking"><title>Load Balancer (Cloud Load Balancing)</title>
<use href="#svc-cloud_load_balancing" x="261" y="508" width="64" height="64"/>
<text class="nlabel" x="293" y="589" text-anchor="middle">Load Balancer</text>
<text class="nsub" x="293" y="603" text-anchor="middle">global external</text>
</g>
<g class="node" data-id="api" data-label="Search API" data-service="Cloud Run" data-category="serverless"><title>Search API (Cloud Run)</title>
<use href="#svc-cloud_run" x="475" y="424" width="64" height="64"/>
<text class="nlabel" x="507" y="505" text-anchor="middle">Search API</text>
<text class="nsub" x="507" y="519" text-anchor="middle">Cloud Run</text>
</g>
<g class="node" data-id="vs" data-label="Vector and keyword search" data-service="Vertex AI" data-category="ai-ml"><title>Vector and keyword search (Vertex AI)</title>
<use href="#svc-vertexai" x="724" y="344" width="64" height="64"/>
<text class="nlabel" x="756" y="425" text-anchor="middle">Vector and keyword</text>
<text class="nlabel" x="756" y="439" text-anchor="middle">search</text>
<text class="nsub" x="756" y="453" text-anchor="middle">Vertex AI Search / Vector Search</text>
</g>
<g class="node" data-id="emb" data-label="Embeddings" data-service="Vertex AI" data-category="ai-ml"><title>Embeddings (Vertex AI)</title>
<use href="#svc-vertexai" x="724" y="504" width="64" height="64"/>
<text class="nlabel" x="756" y="585" text-anchor="middle">Embeddings</text>
<text class="nsub" x="756" y="599" text-anchor="middle">text embedding model</text>
</g>
<g class="node" data-id="topic" data-label="Pub/Sub" data-service="Pub/Sub" data-category="analytics"><title>Pub/Sub (Pub/Sub)</title>
<use href="#svc-pubsub" x="996" y="260" width="64" height="64"/>
<text class="nlabel" x="1028" y="341" text-anchor="middle">Pub/Sub</text>
<text class="nsub" x="1028" y="355" text-anchor="middle">catalog change events</text>
</g>
<g class="node" data-id="df" data-label="Dataflow" data-service="Dataflow" data-category="analytics"><title>Dataflow (Dataflow)</title>
<use href="#svc-dataflow" x="996" y="424" width="64" height="64"/>
<text class="nlabel" x="1028" y="505" text-anchor="middle">Dataflow</text>
<text class="nsub" x="1028" y="519" text-anchor="middle">enrich and embed</text>
</g>
<g class="node" data-id="bq" data-label="BigQuery" data-service="BigQuery" data-category="analytics"><title>BigQuery (BigQuery)</title>
<use href="#svc-bigquery" x="996" y="588" width="64" height="64"/>
<text class="nlabel" x="1028" y="669" text-anchor="middle">BigQuery</text>
<text class="nsub" x="1028" y="683" text-anchor="middle">catalog and clickstream</text>
</g>
<g class="node" data-id="pim" data-label="PIM / ERP" data-service="Server Farm" data-category="General"><title>PIM / ERP (Server Farm)</title>
<use href="#gen-server-farm" x="1211.5" y="340" width="64" height="64"/>
<text class="nlabel" x="1243.5" y="421" text-anchor="middle">PIM / ERP</text>
<text class="nsub" x="1243.5" y="435" text-anchor="middle">product master</text>
</g>
<g class="node" data-id="gcs" data-label="Cloud Storage" data-service="Cloud Storage" data-category="storage"><title>Cloud Storage (Cloud Storage)</title>
<use href="#svc-cloud_storage" x="1211.5" y="508" width="64" height="64"/>
<text class="nlabel" x="1243.5" y="589" text-anchor="middle">Cloud Storage</text>
<text class="nsub" x="1243.5" y="603" text-anchor="middle">images and feeds</text>
</g>
<g class="node" data-id="looker" data-label="Looker" data-service="Looker" data-category="analytics"><title>Looker (Looker)</title>
<use href="#svc-looker" x="1387.5" y="340" width="64" height="64"/>
<text class="nlabel" x="1419.5" y="421" text-anchor="middle">Looker</text>
<text class="nsub" x="1419.5" y="435" text-anchor="middle">search analytics</text>
</g>
<g class="node" data-id="mon" data-label="Cloud Monitoring" data-service="Cloud Monitoring" data-category="operations"><title>Cloud Monitoring (Cloud Monitoring)</title>
<use href="#svc-cloud_monitoring" x="1387.5" y="508" width="64" height="64"/>
<text class="nlabel" x="1419.5" y="589" text-anchor="middle">Cloud Monitoring</text>
</g>
</svg>